<svg width="32" height="32" viewBox="0 0 32 32" xmlns="http://www.w3.org/2000/svg">
<path d="M9.40045 24.8187L24.4854 9.73372C25.0039 9.21517 25.0039 8.36665 24.4854 7.8481C23.9668 7.32956 23.1183 7.32956 22.5998 7.8481L7.51483 22.933C6.99629 23.4516 6.99629 24.3001 7.51483 24.8187C8.03338 25.3372 8.8819 25.3372 9.40045 24.8187Z" />
<path d="M24.4853 22.933L9.40034 7.8481C8.8818 7.32956 8.03327 7.32956 7.51473 7.8481C6.99618 8.36665 6.99618 9.21518 7.51473 9.73372L22.5997 24.8187C23.1182 25.3372 23.9667 25.3372 24.4853 24.8187C25.0038 24.3001 25.0038 23.4516 24.4853 22.933Z" />
</svg>
