<svg width="151" height="40" viewBox="0 0 151 40" fill="none" xmlns="http://www.w3.org/2000/svg">
<path d="M3.88889 22.431C5.66667 20.9945 9.11111 21.2155 10.7778 23.6465C11.5556 22.7625 12.6667 22.0995 13.7778 21.768C14.5556 21.547 15.3333 21.547 16.1111 21.6575C17.4444 21.8785 18.5556 22.5415 19.5556 23.536C20.3333 24.3095 20.7778 25.1934 20.8889 26.2984C21 27.4034 20.8889 28.5083 20.8889 29.6133C20.8889 32.7072 20.8889 35.9117 20.8889 39.0056C20.8889 39.3371 20.7778 39.3371 20.5556 39.3371C19.5556 39.3371 18.5556 39.3371 17.5556 39.3371C17.3333 39.3371 17.2222 39.2266 17.2222 39.0056C17.2222 35.3592 17.2222 31.7128 17.2222 28.1769C17.2222 27.4034 17.2222 26.7404 16.8889 26.0774C16.5556 25.5249 16.1111 25.0829 15.4444 24.9724C14.2222 24.7514 13.1111 25.1934 12.5556 26.4089C12.3333 26.7404 12.3333 27.1824 12.3333 27.5139C12.3333 31.3813 12.3333 35.2487 12.3333 39.1161C12.3333 39.4476 12.2222 39.5581 12 39.4476C11 39.4476 10 39.4476 9 39.4476C8.66667 39.4476 8.66667 39.3371 8.66667 39.1161C8.66667 36.6851 8.66667 34.2542 8.66667 31.8233C8.66667 30.3868 8.66667 28.8398 8.66667 27.4034C8.66667 25.9669 7.33333 24.7514 5.88889 24.9724C5.22222 25.0829 4.55556 25.3039 4.22222 25.9669C4.11111 26.2984 4 26.6299 4 26.9614C4 27.5139 4 28.1769 4 28.7293C4 29.0608 4 29.3923 4 29.6133C4.11111 32.1548 4 34.6962 4.11111 37.2376C4.11111 37.9006 4.11111 38.5636 4.11111 39.2266C4.11111 39.4476 4.11111 39.4476 3.88889 39.4476C2.77778 39.4476 1.55556 39.4476 0.444444 39.4476C0 39.4476 0 39.3371 0 39.2266C0 37.9006 0 36.5746 0 35.1382C0 30.7183 0 26.2984 0 21.8785C0 21.547 0.111111 21.4365 0.444444 21.4365C1.44444 21.4365 2.55556 21.4365 3.55556 21.4365C3.77778 21.4365 3.88889 21.547 3.88889 21.768C3.77778 22.0995 3.88889 22.21 3.88889 22.431Z" fill="#FF9100"/>
<path d="M111.556 33.3703C111.778 32.1548 112.111 30.9393 112.333 29.6133C112.556 28.0664 112.889 26.6299 113.222 25.083C113.444 23.978 113.667 22.873 113.889 21.6575C113.889 21.547 114 21.547 114.111 21.547C115.333 21.547 116.444 21.547 117.667 21.547C117.889 21.547 117.889 21.6575 117.889 21.768C118.111 22.9835 118.444 24.3095 118.667 25.5249C118.889 26.7404 119.222 27.9559 119.333 29.1714C119.556 30.6078 119.889 31.9338 120.222 33.3703C120.333 32.8178 120.444 32.1548 120.556 31.6023C121 29.5028 121.333 27.4034 121.778 25.1935C122 23.978 122.222 22.873 122.444 21.768C122.444 21.6575 122.556 21.547 122.667 21.547C123.889 21.547 125.222 21.547 126.556 21.547C126.111 23.4255 125.556 25.304 125.111 27.2929C124.111 31.2708 123.222 35.2487 122.222 39.2266C122.222 39.4476 122.111 39.4476 121.889 39.4476C120.778 39.4476 119.556 39.4476 118.444 39.4476C118.222 39.4476 118.111 39.3371 118.111 39.1161C117.444 36.0222 116.667 33.0388 116 29.9448C116 29.8343 116 29.7238 115.889 29.7238C115.444 31.4918 115 33.2598 114.556 35.0277C114.222 36.3537 113.889 37.7901 113.556 39.1161C113.556 39.3371 113.444 39.3371 113.222 39.3371C112 39.3371 110.889 39.3371 109.667 39.3371C109.444 39.3371 109.444 39.2266 109.333 39.0056C108.667 36.3537 108.111 33.5912 107.444 30.9393C107.111 29.7238 106.889 28.5084 106.556 27.4034C106.222 25.8564 105.889 24.3095 105.444 22.7625C105.333 22.3205 105.222 21.989 105.111 21.547C105.111 21.4365 105.111 21.326 105.222 21.326C106.444 21.326 107.667 21.326 108.889 21.326C109.111 21.326 109.111 21.547 109.111 21.547C109.222 22.0995 109.333 22.652 109.444 23.2045C109.667 24.3095 109.889 25.4144 110.111 26.5194C110.444 28.0664 110.667 29.6133 111 31.1603C111.222 32.0443 111.333 32.7073 111.556 33.3703Z" fill="white"/>
<path d="M82 15.2487C82.4445 15.2487 82.8889 15.2487 83.2223 15.2487C83.3334 15.2487 83.4445 15.2487 83.5556 15.3592C83.6667 15.3592 83.8889 15.2487 84 15.2487C84.1111 15.2487 84.2222 15.3592 84.1111 15.5802C84.1111 16.1327 84.1111 16.5747 84.1111 17.1272C84.2222 17.3482 84.2222 17.4586 84.1111 17.5691C84.1111 19.3371 84.1111 21.1051 84.1111 22.873C84.4445 22.5415 84.6667 22.3205 85.1111 22.21C85.4445 22.0995 85.8889 21.989 86.3334 21.989C87.2222 21.8785 88.1111 21.8785 89 22.21C89.6667 22.431 90.2223 22.7625 90.6667 23.2045C91.5556 23.978 92.2222 25.083 92.4445 26.2984C92.5556 26.7404 92.5556 27.1824 92.5556 27.5139C92.4445 31.4918 92.5556 35.3592 92.5556 39.3371C92.5556 39.5581 92.4445 39.6686 92.2223 39.6686C91.2223 39.6686 90.1111 39.6686 89.1111 39.6686C88.8889 39.6686 88.7778 39.5581 88.7778 39.3371C88.7778 36.4642 88.7778 33.5912 88.7778 30.7183C88.7778 29.8343 88.7778 28.8399 88.7778 27.9559C88.7778 27.2929 88.5556 26.7404 88.2223 26.1879C87.5556 25.4144 86.7778 25.4144 85.8889 25.5249C84.6667 25.6354 84.1111 26.4089 84.1111 27.6244C84.1111 29.3923 84.1111 31.1603 84.1111 32.9283C84.1111 35.1382 84.1111 37.2377 84.2223 39.4476C84.2223 39.6686 84.2223 39.7791 83.8889 39.7791C82.7778 39.7791 81.6667 39.7791 80.5556 39.7791C80.3334 39.7791 80.2222 39.6686 80.2222 39.4476C80.2222 39.3371 80.2222 39.3371 80.2222 39.2266C80.2222 32.7073 80.2222 26.1879 80.2222 19.6686C80.2222 19.5581 80.2222 19.4476 80.2222 19.3371C80.1111 19.1161 80.1111 19.0056 80.2222 18.7846C80.2222 17.7901 80.2222 16.7957 80.2222 15.6907C80.2222 15.4697 80.2223 15.4697 80.4445 15.4697C80.7778 15.4697 81.2223 15.4697 81.5556 15.4697C81.7778 15.1382 81.8889 15.1382 82 15.2487Z" fill="white"/>
<path d="M79.5556 26.7404C78.2222 26.7404 77 26.7404 75.7778 26.7404C75.5556 26.7404 75.5556 26.7404 75.5556 26.5194C75.3333 25.8564 74.8889 25.5249 74.2222 25.3039C73.2222 24.9724 72.1111 25.3039 71.4445 26.2984C70.8889 27.1824 71.1111 28.6188 72.3333 28.9503C73 29.1713 73.5556 29.1713 74.2222 29.1713C75.5556 29.2818 76.8889 29.6133 77.8889 30.4973C79.3333 31.6022 79.7778 33.1492 79.5556 34.9172C79.2222 37.5691 77.3333 39.4475 74.6667 39.779C73.1111 40 71.4444 40 70.1111 39.0056C68.6667 38.1216 67.7778 36.9061 67.4444 35.2487C67.4444 35.0277 67.4445 34.9172 67.6667 34.9172C68.7778 34.9172 69.8889 34.9172 71 34.9172C71.2222 34.9172 71.3333 35.0277 71.4445 35.2487C71.8889 36.1326 72.7778 36.5746 73.7778 36.4641C74.6667 36.3536 75.5556 35.6906 75.7778 34.8067C76 33.8122 75.5556 32.9282 74.5556 32.5967C74 32.3757 73.4444 32.3757 72.8889 32.3757C71.2222 32.3757 69.6667 31.8232 68.5556 30.6078C67.8889 29.8343 67.4444 28.9503 67.3333 27.9558C67.2222 26.8509 67.3333 25.8564 67.8889 24.8619C68.3333 23.8674 69.2222 23.094 70.2222 22.431C70.8889 21.989 71.6667 21.768 72.5556 21.768C73.6667 21.6575 74.8889 21.6575 75.8889 21.989C77.7778 22.652 79 23.9779 79.5556 25.9669C79.5556 26.2984 79.5556 26.5194 79.5556 26.7404Z" fill="white"/>
<path d="M84.2222 17.4586C84.2222 17.2376 84.2222 17.1271 84.2222 17.0166C85.8889 15.2486 87.5556 13.3702 88 10.9393C88.4445 8.72931 87.8889 6.85086 86.1111 5.4144C85.1111 4.64091 84 4.30942 82.7778 4.08843C81 3.75694 79.2222 3.75694 77.3334 3.86743C74.8889 4.08843 72.4445 4.41992 70.1111 5.0829C69.8889 5.1934 69.6667 5.1934 69.4445 5.1934C68.4445 5.3039 67.6667 4.75141 67.4445 3.64644C67.2222 2.43097 67.7778 1.65749 68.8889 1.326C70.3334 0.884009 71.7778 0.663014 73.2222 0.44202C75.2222 0.110528 77.2222 3.10242e-05 79.2222 0.110528C81.7778 0.221025 84.3334 0.663014 86.5556 1.98898C88.2222 2.98346 89.3334 4.30942 89.7778 6.18788C90.2222 7.51384 90 8.83981 89.6667 10.0553C89.1111 11.9337 88.1111 13.4807 86.8889 14.9172C86 15.9116 85.1111 16.6851 84.2222 17.4586Z" fill="#FF9100"/>
<path d="M143.556 22.431C144.444 21.768 145.333 21.6575 146.333 21.547C147.111 21.547 147.889 21.547 148.667 21.8785C149.556 22.21 150.333 22.7625 150.889 23.5359C151 23.7569 150.889 23.7569 150.778 23.8674C150.222 24.3094 149.778 24.6409 149.222 25.0829C148.778 25.4144 148.333 25.7459 147.889 26.0774C147.778 26.1879 147.778 26.1879 147.667 26.0774C147.333 25.4144 146.778 25.0829 146 25.0829C145.333 24.9724 144.778 25.0829 144.222 25.4144C143.667 25.7459 143.444 26.2984 143.444 26.8509C143.444 28.9503 143.444 31.0498 143.444 33.1492C143.444 35.1382 143.444 37.2376 143.556 39.2266C143.556 39.4475 143.556 39.558 143.222 39.558C142.111 39.558 141 39.558 139.889 39.558C139.667 39.558 139.556 39.4475 139.556 39.2266C139.556 36.1326 139.556 33.0387 139.556 29.9448C139.556 27.2929 139.556 24.6409 139.556 21.989C139.556 21.768 139.667 21.6575 139.889 21.6575C141 21.6575 142.111 21.6575 143.222 21.6575C143.444 21.6575 143.556 21.768 143.556 21.989C143.556 21.989 143.556 22.21 143.556 22.431Z" fill="white"/>
<path d="M49.1111 30.4973C49.1111 27.6243 49.1111 24.7514 49.1111 21.8785C49.1111 21.547 49.2222 21.547 49.4444 21.547C50.5555 21.547 51.6666 21.547 52.6666 21.547C53 21.547 53 21.6575 53 21.8785C53 27.1824 53 32.5967 53 37.9006C53 38.3426 53 38.7846 53 39.2266C53 39.4475 52.8889 39.4475 52.7778 39.4475C51.6666 39.4475 50.4444 39.4475 49.3333 39.4475C49.1111 39.4475 49.1111 39.3371 49.1111 39.1161C49.1111 38.2321 49.1111 37.3481 49.1111 36.3536C49.1111 34.4752 49.1111 32.4862 49.1111 30.4973Z" fill="#FF9100"/>
<path d="M82 15.2487C81.8889 15.2487 81.7778 15.2487 81.7778 15.2487C81.7778 15.1382 81.8889 15.0277 81.8889 14.9172C82 14.1437 81.6666 13.5912 80.8889 13.2597C80 12.9283 79.1111 12.8178 78.1111 12.8178C75.3333 12.9283 72.5555 13.5912 70 14.5857C66.2222 16.0222 62.7778 18.1216 59.6666 20.7736C59.3333 20.9946 59.1111 21.326 58.7778 21.547C58.4444 21.768 58.1111 21.989 57.7778 22.0995C57.2222 22.21 56.6666 21.8785 56.4444 21.326C56.3333 21.1051 56.3333 20.8841 56.4444 20.6631C56.5555 20.3316 56.8889 20.0001 57.1111 19.7791C59 18.0111 61.2222 16.4642 63.4444 15.2487C66.4444 13.5912 69.6666 12.3758 73.1111 11.6023C75 11.1603 76.7778 11.0498 78.6666 11.0498C79.5555 11.0498 80.4444 11.1603 81.3333 11.6023C82.3333 12.0443 82.7778 12.7073 82.6666 13.8122C82.6666 14.2542 82.4444 14.5857 82.3333 14.9172C82.1111 14.9172 82 15.0277 82 15.2487Z" fill="#FF9100"/>
<path d="M84.2222 15.4697C84.2222 15.3592 84.2222 15.2487 84 15.2487C83.8889 15.2487 83.7778 15.2487 83.5556 15.2487C84.3333 14.3647 85 13.4807 85.5556 12.4862C86.4445 10.8288 86.1111 9.39231 84.6667 8.28733C83.5556 7.51385 82.3333 7.18236 81 6.96137C78.3333 6.62987 75.6667 6.96137 73 7.51385C69.1111 8.39783 65.4444 10.0553 62 12.2652C61.4444 12.5967 61 12.9282 60.4445 13.2597C60.1111 13.4807 59.8889 13.5912 59.5556 13.7017C59.1111 13.8122 58.6667 13.5912 58.4444 13.1492C58.2222 12.8177 58.4445 12.4862 58.5556 12.2652C58.7778 12.0442 59 11.8232 59.2222 11.7127C63.5556 9.17131 68.1111 7.18236 73 6.07739C74.6667 5.7459 76.4445 5.5249 78.2222 5.5249C80.3333 5.6354 82.3333 5.85639 84.2222 6.74037C85.3333 7.29286 86.2222 7.95584 86.6667 9.17131C86.8889 9.94479 86.8889 10.7183 86.6667 11.3813C86.3333 13.0387 85.3333 14.2542 84.2222 15.4697Z" fill="#FF9100"/>
<path d="M62.7778 4.53047C62.7778 3.75699 63.3333 3.09401 64.2222 2.87301C65 2.76252 65.6667 3.09401 66 3.86749C66.5556 5.19346 66 6.40892 64.4444 6.62992C63.5555 6.74042 63.1111 6.51942 62.8889 5.63544C62.8889 5.30395 62.7778 4.86196 62.7778 4.53047Z" fill="#FF9100"/>
<path d="M58.6667 6.74031C58.6667 5.96683 59.1111 5.52484 59.7778 5.41434C60.4445 5.30384 61 5.52484 61.2222 6.18782C61.4445 6.74031 61.4445 7.29279 61.1111 7.73478C60.6667 8.28727 60.1111 8.39777 59.4445 8.39777C59.1111 8.39777 58.8889 8.17677 58.7778 7.84528C58.6667 7.51379 58.6667 7.0718 58.6667 6.74031Z" fill="#FF9100"/>
<path d="M54.8889 14.9172C54.8889 14.2542 55.2222 13.8122 55.7778 13.5912C56.2222 13.4807 56.6667 13.5912 57 14.0332C57.7778 15.0277 57.3334 16.1327 56.1111 16.4642C55.8889 16.4642 55.6667 16.4642 55.5556 16.3537C55.2222 15.9117 54.8889 15.3592 54.8889 14.9172Z" fill="#FF9100"/>
<path d="M54.5556 17.5691C54.5556 18.1215 54 18.674 53.4445 18.674C53.3333 18.674 53.3334 18.674 53.2222 18.674C52.6667 18.453 52.3334 17.3481 52.6667 16.7956C53 16.4641 53.4445 16.2431 53.7778 16.4641C54.2222 16.5746 54.5556 17.1271 54.5556 17.5691Z" fill="#FF9100"/>
<path d="M56.1111 9.94475C55.7778 9.94475 55.5556 9.83425 55.5556 9.50276C55.4445 9.17126 55.4445 8.83977 55.4445 8.50828C55.4445 8.17679 55.7778 7.8453 56.2222 7.7348C56.6667 7.6243 57 7.7348 57.2222 8.17679C57.6667 9.17126 57.2222 9.94475 56.1111 9.94475Z" fill="#FF9100"/>
<path d="M52.3334 19.779C52.3334 20.1105 51.8889 20.663 51.5556 20.5525C51.3334 20.5525 50.8889 19.8895 50.8889 19.558C50.8889 19.2265 51.3334 18.895 51.6667 18.7845C52 19.0055 52.3334 19.337 52.3334 19.779Z" fill="#FF9100"/>
<path d="M80.3333 18.4531C80.3333 18.6741 80.3333 18.7846 80.3333 19.0056C79.4444 19.6686 78.4444 20.4421 77.4444 20.9946C77.3333 20.9946 77.3333 20.9946 77.3333 20.8841C78.3333 20.1106 79.3333 19.3371 80.3333 18.4531Z" fill="#FF9100"/>
<path d="M77.3333 20.9945C77.3333 21.105 77.2222 21.105 77.2222 21.2155C77.2222 21.105 77.3333 20.9945 77.3333 20.9945Z" fill="#FF9100"/>
<path d="M47.3333 15.2487C46.2222 15.2487 45.2222 15.2487 44.1111 15.3592C43.6666 15.3592 43.6666 15.3592 43.6666 15.9117C43.6666 18.1216 43.6666 20.3316 43.6666 22.5415C43.6666 22.652 43.6666 22.7625 43.6666 22.873L43.5555 22.7625C43 22.21 42.3333 21.989 41.5555 21.989C41.1111 21.989 40.6666 21.989 40.2222 22.0995C39.5555 22.21 38.8889 22.3205 38.3333 22.652C37.5555 23.094 36.8889 23.6465 36.3333 24.3095C35.6666 25.1935 35.3333 26.1879 35.3333 27.2929C35.3333 29.7238 35.3333 32.1548 35.3333 34.5857C35.3333 34.9172 35.3333 35.2487 35.4444 35.5802C36.1111 38.3426 38.4444 40.2211 41.3333 40.0001C42.3333 39.8896 43.3333 39.6686 44 38.7846C44 39.0056 44 39.2266 44 39.4476C44 39.6686 44 39.7791 44.3333 39.7791C45.3333 39.7791 46.3333 39.7791 47.3333 39.7791C47.6666 39.7791 47.6666 39.6686 47.6666 39.3371C47.6666 36.0222 47.6666 32.7073 47.6666 29.5029C47.6666 24.9725 47.6666 20.3316 47.6666 15.8012C47.6666 15.2487 47.5555 15.1382 47.3333 15.2487ZM43.6666 34.1437C43.6666 35.2487 42.8889 36.1327 41.5555 36.3537C40.4444 36.4642 39.5555 36.0222 39.2222 34.8067C39.1111 34.3647 39 33.8122 39 33.2598C39 31.4918 39 29.8343 39 28.0664C39 27.6244 39.1111 27.0719 39.2222 26.6299C39.5555 25.7459 40.2222 25.304 41.1111 25.1935C41.4444 25.1935 41.8889 25.1935 42.2222 25.304C43.1111 25.525 43.5555 26.1879 43.5555 27.1824C43.5555 28.3979 43.5555 29.5029 43.5555 30.7183C43.6666 31.8233 43.6666 32.9283 43.6666 34.1437Z" fill="#FF9100"/>
<path d="M67 26.9614C67 26.7404 67 26.5194 66.8889 26.2984C66.6667 25.4144 66.3333 24.6409 65.7778 23.978C65.1111 23.2045 64.3333 22.652 63.4444 22.21C62.1111 21.768 60.6667 21.6575 59.3333 21.989C57.3333 22.431 55.8889 23.6465 55.1111 25.5249C54.8889 26.0774 54.8889 26.7404 54.7778 27.2929C54.7778 27.5139 54.8889 27.5139 55 27.5139C56 27.5139 57 27.5139 58 27.5139C58.5555 27.5139 58.4444 27.5139 58.6667 27.0719C58.8889 26.6299 59 26.0774 59.5555 25.7459C60 25.4144 60.5555 25.3039 61.1111 25.4144C61.8889 25.5249 62.5555 25.8564 62.8889 26.7404C63 27.1824 63.1111 27.6244 63.2222 28.0664C63.3333 28.5083 63.2222 29.0608 63.2222 29.5028C63 29.3923 62.7778 29.2818 62.5555 29.2818C61.6667 28.9503 60.6667 29.0608 59.6667 29.0608C59.1111 29.0608 58.4444 29.1713 57.8889 29.3923C56.4444 29.9448 55.5555 30.9393 54.7778 32.1548C54.2222 33.1492 53.8889 34.2542 54 35.4697C54.1111 36.7956 54.8889 37.6796 55.8889 38.5636C57.4444 39.7791 59.1111 40.1106 61 39.8896C61.7778 39.7791 62.5555 39.5581 63 38.6741C63 38.8951 63 39.1161 63 39.3371C63 39.5581 63.1111 39.6686 63.3333 39.6686C64.3333 39.6686 65.4444 39.6686 66.4444 39.6686C66.7778 39.6686 66.7778 39.5581 66.7778 39.3371C67 35.0277 67 30.9393 67 26.9614ZM61.2222 36.4641C61 36.4641 60.7778 36.5746 60.6667 36.5746C59.7778 36.5746 59 36.2432 58.3333 35.6907C57.5555 35.0277 57.4444 34.2542 58 33.4807C58.6667 32.4862 59.5555 31.9338 60.7778 31.9338C62.1111 31.9338 63.3333 33.1492 63.3333 34.3647C63.2222 35.2487 62.3333 36.2432 61.2222 36.4641Z" fill="#FF9100"/>
<path d="M33.8889 34.1436C32.8889 34.1436 31.7778 34.1436 30.7778 34.1436C30.5556 34.1436 30.4444 34.2541 30.4444 34.4751C30.3333 34.9171 30.2222 35.3591 30 35.8011C29.7778 36.1326 29.5556 36.3536 29.1111 36.3536C28.6667 36.3536 28.3333 36.3536 27.8889 36.2431C26.6667 36.0221 26 35.3591 25.8889 34.1436C25.7778 33.7016 25.8889 33.3701 25.7778 32.9282C25.7778 32.7072 25.8889 32.5967 26.1111 32.5967C27.4444 32.5967 28.7778 32.5967 30 32.5967C31.3333 32.5967 32.5556 32.5967 33.8889 32.5967C34.1111 32.5967 34.2222 32.4862 34.2222 32.2652C34.2222 30.4972 34.2222 28.7293 34.2222 26.8508C34.2222 26.6298 34.2222 26.4088 34.1111 26.1878C33.8889 25.3039 33.5556 24.5304 33 23.8674C32.3333 23.0939 31.5556 22.4309 30.5556 22.0994C29.2222 21.6574 27.8889 21.6574 26.4444 21.8784C24.7778 22.2099 23.4444 23.2044 22.6667 24.6409C22.1111 25.5248 22 26.5193 22 27.6243C22 29.0608 22.1111 30.6077 22 32.0442C22 32.7072 22 33.4806 22 34.1436C22 36.5746 23.2222 38.232 25.3333 39.2265C26.7778 39.8895 28.3333 39.8895 29.8889 39.558C32.2222 39.116 34.2222 36.7956 34.3333 34.3646C34.1111 34.2541 34.1111 34.1436 33.8889 34.1436ZM25.8889 26.8508C26.2222 25.6353 27.2222 25.0829 28.4444 25.3039C29.7778 25.5248 30.2222 26.5193 30.3333 27.6243C30.4444 28.1768 30.3333 28.7293 30.4444 29.2818C30.4444 29.5027 30.4444 29.6132 30.1111 29.6132C29.4444 29.6132 28.7778 29.6132 28 29.6132C27.3333 29.6132 26.6667 29.6132 26 29.6132C25.7778 29.6132 25.6667 29.5027 25.7778 29.2818C25.6667 28.3978 25.6667 27.6243 25.8889 26.8508Z" fill="#FF9100"/>
<path d="M138.556 26.1879C138.222 24.5304 137.222 23.315 135.667 22.431C135 22.0995 134.222 21.8785 133.444 21.768C132.444 21.6575 131.556 21.6575 130.667 21.8785C129.333 22.21 128.333 22.873 127.444 23.978C126.778 24.8619 126.333 25.8564 126.333 27.0719C126.333 29.5028 126.333 31.8233 126.333 34.2542C126.333 36.5746 128 38.7846 130.333 39.5581C131.222 39.7791 132.222 39.7791 133.111 39.7791C136 39.7791 138.556 37.3481 138.556 34.4752C138.556 34.2542 138.556 34.2542 138.333 34.2542C137.222 34.2542 136.111 34.2542 135.111 34.2542C134.889 34.2542 134.889 34.3647 134.778 34.4752C134.667 35.0277 134.556 35.4697 134.222 35.9117C134 36.1327 133.778 36.3537 133.444 36.3537C133 36.3537 132.667 36.3536 132.222 36.2432C131 36.0222 130.444 35.3592 130.222 34.1437C130.111 33.7017 130.222 33.2597 130.111 32.8177C130.111 32.5967 130.222 32.5967 130.333 32.5967C131.667 32.5967 133 32.5967 134.222 32.5967C135.556 32.5967 136.778 32.5967 138.111 32.5967C138.556 32.5967 138.556 32.5967 138.556 32.1548C138.556 31.2708 138.556 30.2763 138.556 29.3923C138.778 28.3979 138.778 27.2929 138.556 26.1879ZM134.556 29.5028C133.889 29.5028 133.222 29.5028 132.556 29.5028C131.889 29.5028 131.222 29.5028 130.444 29.5028C130.222 29.5028 130.222 29.5028 130.222 29.2818C130.222 28.3978 130.222 27.5139 130.444 26.7404C130.778 25.6354 131.889 25.1934 132.889 25.3039C134.222 25.5249 134.667 26.5194 134.778 27.5139C134.889 28.0664 134.778 28.6188 134.889 29.1713C134.889 29.5028 134.778 29.5028 134.556 29.5028Z" fill="white"/>
<path d="M105.778 27.2929C105.778 26.8509 105.778 26.4089 105.667 26.0774C105.111 24.199 103.889 22.873 102 22.21C101.111 21.8785 100.333 21.8785 99.4445 21.8785C98.4445 21.8785 97.4445 22.0995 96.4445 22.5415C95.3334 23.094 94.5556 23.978 94 25.083C93.5556 25.8564 93.4445 26.8509 93.4445 27.7349C93.4445 28.5084 93.4445 29.3924 93.4445 30.1658C93.4445 31.6023 93.4445 32.9283 93.4445 34.3647C93.4445 36.6852 95.1111 38.8951 97.3333 39.5581C98.2222 39.7791 99.1111 39.7791 100 39.7791C103.111 39.7791 105.667 37.3482 105.667 34.1437C105.667 32.9283 105.667 31.8233 105.667 30.6078C105.778 29.6133 105.778 28.3979 105.778 27.2929ZM102 33.3703C102 33.8122 101.889 34.2542 101.778 34.6962C101.444 35.9117 100.556 36.4642 99.3334 36.2432C98.2222 36.0222 97.5556 35.4697 97.3333 34.2542C97.2222 33.5912 97.2222 32.9283 97.2222 32.1548C97.2222 31.7128 97.2222 31.1603 97.2222 30.7183C97.2222 29.7238 97.2222 28.7294 97.2222 27.7349C97.2222 27.0719 97.3333 26.4089 97.7778 25.9669C98.3333 25.304 99.3333 25.083 100.222 25.304C101.111 25.5249 101.556 26.1879 101.778 27.0719C101.889 27.5139 101.889 27.9559 101.889 28.3979C102 30.0553 102 31.7128 102 33.3703Z" fill="white"/>
</svg>
